inDegrees=no
num_controls=7
num_derivatives=13
num_iterations=157
num_multipliers=7
num_parameters=0
num_slacks=7
num_states=26
objective=6.080884
objective_accelerations=0.626706
objective_balance=0.068856
objective_effort=0.511394
objective_height=4.850435
objective_ligament=0.023493
solver_duration=1634.264438
status=Solve_Succeeded
success=true
DataType=double
version=3
OpenSimVersion=4.4-2022-07-23-0e9fedc
endheader
time	/jointset/ground_pelvis/pelvis_tilt/value	/jointset/ground_pelvis/pelvis_tx/value	/jointset/ground_pelvis/pelvis_ty/value	/jointset/hip_l/hip_flexion_l/value	/jointset/hip_l/hip_adduction_l/value	/jointset/hip_l/hip_rotation_l/value	/jointset/back/lumbar_extension/value	/jointset/patellofemoral_l/patellar_flexion_l/value	/jointset/knee_l/knee_flexion_l/value	/jointset/knee_l/knee_adduction_l/value	/jointset/knee_l/knee_rotation_l/value	/jointset/ankle_l/ankle_angle_l/value	/jointset/subtalar_l/subtalar_angle_l/value	/jointset/ground_pelvis/pelvis_tilt/speed	/jointset/ground_pelvis/pelvis_tx/speed	/jointset/ground_pelvis/pelvis_ty/speed	/jointset/hip_l/hip_flexion_l/speed	/jointset/hip_l/hip_adduction_l/speed	/jointset/hip_l/hip_rotation_l/speed	/jointset/back/lumbar_extension/speed	/jointset/patellofemoral_l/patellar_flexion_l/speed	/jointset/knee_l/knee_flexion_l/speed	/jointset/knee_l/knee_adduction_l/speed	/jointset/knee_l/knee_rotation_l/speed	/jointset/ankle_l/ankle_angle_l/speed	/jointset/subtalar_l/subtalar_angle_l/speed	/forceset/tau_hip_flexion_l	/forceset/tau_hip_adduction_l	/forceset/tau_hip_rotation_l	/forceset/tau_knee_flexion_l	/forceset/tau_ankle_angle_l	/forceset/tau_subtalar_angle_l	/forceset/tau_lumbar_extension	lambda_cid13_p0	lambda_cid13_p1	lambda_cid13_p2	lambda_cid13_p3	lambda_cid13_p4	lambda_cid13_p5	lambda_cid14_p0	/jointset/ground_pelvis/pelvis_tilt/accel	/jointset/ground_pelvis/pelvis_tx/accel	/jointset/ground_pelvis/pelvis_ty/accel	/jointset/hip_l/hip_flexion_l/accel	/jointset/hip_l/hip_adduction_l/accel	/jointset/hip_l/hip_rotation_l/accel	/jointset/back/lumbar_extension/accel	/jointset/patellofemoral_l/patellar_flexion_l/accel	/jointset/knee_l/knee_flexion_l/accel	/jointset/knee_l/knee_adduction_l/accel	/jointset/knee_l/knee_rotation_l/accel	/jointset/ankle_l/ankle_angle_l/accel	/jointset/subtalar_l/subtalar_angle_l/accel	gamma_cid13_p0	gamma_cid13_p1	gamma_cid13_p2	gamma_cid13_p3	gamma_cid13_p4	gamma_cid13_p5	gamma_cid14_p0
1	-0.1048817248141925	-0.03367471775860214	0.6611136466207542	1.359685938620848	-0.3257123809591168	0.05868264341722176	-0.9599310885968813	1.501631229661015	1.501631229660934	-0.008470721668529106	-0.1745327189330884	0.3563374108432024	0.1053574260022595	0.1065431168911676	0.02550231255752441	0.07048836180133343	-0.3045321582353111	-0.007719788301043844	-0.06245664818491702	8.298096851244023e-05	-0.1571253503601355	-0.1571253503601369	-0.003671636851090934	-4.004558000557885e-07	0.032404010336797	0.006622121988206398	-0.3789707220691616	0.03449417729585093	-0.002877338138110069	-0.3905406722193211	-0.03265125955714096	0.02416466204370744	0.4308484047951056	-62.22850029730628	2.93492104792231	-3.816507928520461	20.81663526140709	-809.100115357852	-63.64359062657172	-0.04030855041646138	0.7776422890366301	-0.131962959441447	1.702988351719357	-5.131029346550927	-0.04107487183908988	-1.472156296922349	-0.03284666893532277	-5.430859990462658	-5.430859990464263	-0.6645097879517295	-0.02364711580916655	-1.477843257917865	-0.7997621007773427	-4.849527255533758e-09	5.452227767311203e-09	5.45488773779562e-09	-4.743122840720462e-09	-1.786477703678832e-08	9.625842177640097e-08	-1.035138403823712e-08
1.01	-0.1037778221026487	-0.03342620232360258	0.6619034330106967	1.3563850163464	-0.3257909644783891	0.05798451548128802	-0.9599310761319572	1.499788922706238	1.499788922706223	-0.008539691875691903	-0.174532721926504	0.3565876808475507	0.1053846970080775	0.1142290385026602	0.0242101366270209	0.08745394901624416	-0.3556140380356345	-0.00798821637248856	-0.07716071440962323	-3.996022503553374e-05	-0.2113189759320225	-0.2113189759320137	-0.01011609658388999	-2.868607041998595e-07	0.01763943778075842	-0.001161043958435914	-0.3781616725476539	0.03462894697789113	-0.002920967156988936	-0.3903343358358846	-0.03265417087266943	0.02431668863961407	0.4305261714544839	-62.18526295802106	2.842355030205881	-3.780081747285866	20.60093451389907	-808.7093106671623	-63.74009733545109	-0.04033484399118933	0.7628070519714971	-0.1264405388498107	1.691094276213267	-5.091030929320072	-0.01841874035435484	-1.46831070672373	0.003991546336839769	-5.411051156126366	-5.411051156123949	-0.6334791100146958	0.01183363975591015	-1.477349219747431	-0.7665629791613795	-1.115578529930678e-08	-9.217291657119732e-09	1.980848996701054e-08	1.672424007122805e-10	-2.272347856336172e-08	1.032078908765918e-07	-1.487909270434117e-08
1.02	-0.1025973121840377	-0.033190327773707	0.6628624253467562	1.352574422547435	-0.3258719706714879	0.05713959109881044	-0.9599310885968813	1.497405192032628	1.497405192032681	-0.008672919688996089	-0.1745327251754479	0.3566899881332786	0.1053343425269183	0.1218645583047924	0.02297413553672628	0.1043295510246309	-0.4064664631378331	-0.008204323066222007	-0.09181593749349126	7.747421748467356e-05	-0.2654100941268929	-0.2654100941268709	-0.01652315807951431	-4.515621311557643e-07	0.00281146661269636	-0.008902975407227913	-0.3773526230261613	0.03476371665992899	-0.002964596175868036	-0.3901279994524487	-0.03265708218819589	0.02446871523551851	0.4302039381138471	-62.15358037419228	2.751702081872806	-3.743834729302509	20.4489286624816	-808.4681060532092	-63.82308327267005	-0.04036584789838619	0.7675619271645612	-0.1207279913996881	1.68499131041455	-5.085138406925971	-0.03061059629681764	-1.462387668754707	0.0152284582785861	-5.410358515059349	-5.410358515060339	-0.6570301405167689	-0.02370277511369914	-1.490522980322592	-0.7915152012072713	-1.797835779666759e-08	-2.620789264716714e-08	3.502569556977003e-08	5.11710733282559e-09	-2.864840894330795e-08	1.084824986559857e-07	-1.966312339398783e-08
1.03	-0.1013411127551944	-0.0329662993271773	0.663989716314714	1.348256572488244	-0.3259548813774453	0.05614837988830001	-0.9599269304158821	1.494481027896936	1.494481027896928	-0.008870046798979132	-0.1745326905023352	0.356643970893972	0.1052069347348314	0.1293262635269514	0.02186450743899861	0.1211131763211551	-0.4570550600571328	-0.008371849484318055	-0.1064170628275867	0.0009734450704085758	-0.3194099782507241	-0.3194099782507301	-0.02289995299597453	6.748727275561692e-06	-0.011998506888047	-0.01655928527793833	-0.3779151290730475	0.03500654137476274	-0.003028112262396279	-0.3894921153588324	-0.03280021163903998	0.02469355430587665	0.4315340904290406	-62.19467754419176	2.62683799108953	-3.684620891305396	19.8776461460212	-809.0862246918107	-63.89070177466991	-0.04039923527068261	0.7281129493120798	-0.1011351250498087	1.672721249563851	-5.038450142127858	-0.008927750459862762	-1.457610642487336	0.1596655550974206	-5.392885227949379	-5.392885227952969	-0.6276770187153834	0.01284745299998307	-1.473778506175085	-0.7497928630482552	-2.480619880886093e-08	-4.322217814298616e-08	5.02517134518514e-08	1.006737532300706e-08	-3.458421920951309e-08	1.137400160137387e-07	-2.444976961448696e-08
